<svg width="40" height="40" viewBox="0 0 40 40" fill="none" xmlns="http://www.w3.org/2000/svg">
<circle cx="20" cy="20" r="20" fill="black"/>
<path d="M9.2275 27.2473H8.12483L8 22.5966H8.8218C8.86341 23.2437 8.99864 23.8126 9.2275 24.3033C9.45635 24.7868 9.75456 25.1921 10.1221 25.5193C10.4966 25.8464 10.93 26.0953 11.4224 26.2659C11.9148 26.4295 12.4419 26.5113 13.0036 26.5113C13.4197 26.5113 13.8115 26.4544 14.1791 26.3406C14.5536 26.2197 14.8795 26.0455 15.1569 25.8179C15.4413 25.5833 15.6632 25.2953 15.8227 24.9539C15.9891 24.6126 16.0723 24.2215 16.0723 23.7806C16.0723 23.2473 15.9579 22.7886 15.7291 22.4046C15.5002 22.0206 15.1951 21.6828 14.8136 21.3913C14.4392 21.0926 14.0092 20.8259 13.5237 20.5913C13.0452 20.3495 12.5563 20.1113 12.057 19.8766C11.5577 19.6348 11.0653 19.3824 10.5798 19.1193C10.1013 18.849 9.67134 18.5397 9.28991 18.1913C8.91542 17.8357 8.61375 17.4233 8.38489 16.9539C8.15604 16.4846 8.04161 15.9264 8.04161 15.2793C8.04161 15.0304 8.06935 14.7637 8.12483 14.4793C8.18031 14.1948 8.27047 13.9104 8.3953 13.6259C8.52706 13.3415 8.69697 13.0677 8.90502 12.8046C9.12 12.5344 9.387 12.2997 9.70601 12.1006C10.025 11.8944 10.403 11.7308 10.8399 11.6099C11.2768 11.489 11.783 11.4286 12.3587 11.4286C12.6361 11.4286 12.9308 11.4464 13.2429 11.4819C13.5549 11.5175 13.8705 11.5779 14.1895 11.6633C14.5154 11.7486 14.8379 11.8659 15.1569 12.0153C15.4759 12.1575 15.7811 12.3388 16.0723 12.5593L15.9891 11.6206H17.071V16.4099H16.3012C16.2665 15.8837 16.166 15.3753 15.9995 14.8846C15.84 14.3868 15.6042 13.9495 15.2922 13.5726C14.9801 13.1886 14.5952 12.8828 14.1375 12.6553C13.6798 12.4206 13.1388 12.3033 12.5147 12.3033C12.0708 12.3033 11.679 12.3744 11.3392 12.5166C10.9994 12.6517 10.7151 12.8366 10.4862 13.0713C10.2573 13.3059 10.084 13.5797 9.96607 13.8926C9.84818 14.1984 9.78923 14.5219 9.78923 14.8633C9.78923 15.361 9.90366 15.7948 10.1325 16.1646C10.3683 16.5273 10.6769 16.8508 11.0583 17.1353C11.4398 17.4197 11.8732 17.6793 12.3587 17.9139C12.8441 18.1486 13.34 18.3868 13.8462 18.6286C14.3525 18.8633 14.8483 19.1193 15.3338 19.3966C15.8192 19.6668 16.2527 19.9833 16.6341 20.3459C17.0155 20.7015 17.3206 21.1175 17.5495 21.5939C17.7853 22.0704 17.9032 22.6321 17.9032 23.2793C17.9032 23.8837 17.7922 24.4419 17.5703 24.9539C17.3484 25.4588 17.0259 25.8961 16.6029 26.2659C16.1798 26.6286 15.6562 26.913 15.0321 27.1193C14.4149 27.3255 13.711 27.4286 12.9204 27.4286C12.6014 27.4286 12.272 27.4037 11.9321 27.3539C11.5993 27.3113 11.2664 27.2437 10.9335 27.1513C10.6076 27.0588 10.2886 26.9415 9.97648 26.7993C9.67134 26.657 9.387 26.4935 9.12347 26.3086L9.2275 27.2473Z" fill="white"/>
<path d="M18.7666 11.7806H23.7078V12.5059L23.687 12.5273C23.3333 12.5486 23.049 12.6161 22.834 12.7299C22.6259 12.8437 22.4803 13.0001 22.3971 13.1993C22.3208 13.3984 22.3034 13.6401 22.3451 13.9246C22.3867 14.2019 22.4803 14.5219 22.6259 14.8846C22.7924 15.3184 22.9553 15.7415 23.1148 16.1539C23.2743 16.5593 23.4339 16.9681 23.5934 17.3806C23.7598 17.793 23.9262 18.2126 24.0927 18.6393C24.2661 19.0659 24.4498 19.5104 24.644 19.9726C24.8174 20.385 24.9873 20.7904 25.1537 21.1886C25.3271 21.5868 25.4866 21.9673 25.6322 22.3299C25.7848 22.6926 25.9235 23.0339 26.0483 23.3539C26.1801 23.6739 26.2876 23.9548 26.3708 24.1966H26.4124C28.3057 18.721 29.4118 15.5139 29.7308 14.5753C30.0498 13.6366 30.2926 12.9966 30.459 12.6553L28.8258 12.7513V11.7806H33.1429V12.5059C32.8308 12.5201 32.5568 12.5664 32.3211 12.6446C32.0853 12.7228 31.8772 12.8473 31.6969 13.0179C31.5166 13.1815 31.3536 13.3984 31.208 13.6686C31.0624 13.9317 30.8682 14.4081 30.6255 15.0979C30.3897 15.7877 30.0915 16.6375 29.7308 17.6473C29.3771 18.657 29.0477 19.5886 28.7426 20.4419C28.4444 21.2881 28.0942 22.2766 27.6919 23.4073C27.2897 24.5308 26.8285 25.825 26.3084 27.2899H25.7155L20.8783 15.6739C20.7188 15.3041 20.587 14.9735 20.483 14.6819C20.379 14.3833 20.2888 14.1166 20.2125 13.8819C20.1432 13.6401 20.0877 13.4233 20.0461 13.2313C20.0114 13.0393 19.9837 12.8615 19.9629 12.6979L18.7666 12.7513V11.7806Z" fill="white"/>
</svg>
